<svg xmlns="http://www.w3.org/2000/svg" xmlns:xlink="http://www.w3.org/1999/xlink" version="1.1" id="图层_1" x="0px" y="0px" viewBox="0.0 0.0 316.2 316.2" style="enable-background:new 0 0 316.2 316.2;" xml:space="preserve" width="316.22776601683796" height="316.22776601683796">
<style type="text/css">
	.st0{fill:#593987;}
	.st1{fill:#FFFFFF;}
	.st2{fill:#007649;}
</style>
<g transform="matrix(1.25 0 0 -1.25 -41.460411 1048.634036)">
	<g>
		<g transform="matrix(1.3969979 0 0 1.3970274 13.768119 -317.83582)">
			<path class="st0" d="M104.4,649c-48.9,0-88.5,39.6-88.5,88.5c0,48.9,39.6,88.5,88.5,88.5c48.9,0,88.5-39.6,88.5-88.5     C192.9,688.6,153.3,649,104.4,649"/>
			<path class="st1" d="M104.4,824.8c-48.2,0-87.4-39.2-87.4-87.4c0-48.2,39.2-87.4,87.4-87.4c48.2,0,87.4,39.2,87.4,87.4     C191.8,785.6,152.6,824.8,104.4,824.8 M104.4,647.8c-49.4,0-89.6,40.2-89.6,89.6c0,49.4,40.2,89.6,89.6,89.6     c49.4,0,89.6-40.2,89.6-89.6C194.1,688,153.9,647.8,104.4,647.8"/>
			<path class="st2" d="M104.4,680C72.8,680,47,705.8,47,737.5c0,31.7,25.8,57.4,57.4,57.4c31.7,0,57.4-25.8,57.4-57.4     C161.9,705.8,136.1,680,104.4,680"/>
			<g>
				<path class="st1" d="M104.4,796c-32.3,0-58.6-26.2-58.6-58.6c0-32.4,26.2-58.6,58.6-58.6c32.4,0,58.6,26.2,58.6,58.6      C163,769.8,136.8,796,104.4,796 M104.4,793.8c31,0,56.3-25.3,56.3-56.3c0-31-25.3-56.3-56.3-56.3c-31,0-56.3,25.3-56.3,56.3      C48.1,768.5,73.4,793.8,104.4,793.8"/>
				<path class="st1" d="M53.3,694.2l2-2.3l-3.8-7.5l7.3,4.1l1.7-1.5l-3.2-7.7l7,4.6l2.4-1.7l-11.1-6.6l-1.8,1.5l3.1,7.5l-7.1-3.8      l-1.7,1.6L53.3,694.2z"/>
				<path class="st1" d="M68.9,680.8l2.3-1.3L65,669.1l-2.3,1.3L68.9,680.8z"/>
				<path class="st1" d="M74.4,677.6l2.6-1.2l1.1-5.8l4.5,3.6l2.7-0.9l-4.1-11.2l-2.5,0.8l2.7,7.3l-5-3.5l-0.1,0l-1.2,5.9l-3-7.1      l-2.4,1.1L74.4,677.6z"/>
				<path class="st1" d="M92.6,666.6c1.1-0.2,1.9,0.1,2.1,1l0,0c0.1,0.8-0.4,1.3-1.5,1.5c-1.1,0.2-2.1,0.4-2.4,0.5      c-0.1-0.3-0.4-2.2-0.5-2.5C90.9,666.9,91.4,666.8,92.6,666.6 M92.6,661.8c1.1-0.2,1.9,0.1,2,1l0,0c0.1,0.8-0.5,1.4-1.7,1.6      c-1,0.1-2.2,0.4-3.1,0.6c-0.1-0.4-0.4-2.3-0.5-2.6C90.1,662.2,91.1,662,92.6,661.8 M88.7,672.3c2.1-0.5,3.9-0.8,5.1-1      c1.4-0.2,2.4-0.7,2.9-1.5c0.5-0.6,0.6-1.3,0.5-2.1l0,0c-0.2-1.3-1-2.1-1.9-2.3c1.3-0.7,2-1.6,1.8-3.2l0,0      c-0.3-2.2-2.2-3-4.9-2.6c-1.9,0.3-3.8,0.7-5.9,1.2L88.7,672.3z"/>
				<path class="st1" d="M101.4,670.6l2.6,0c0,0-0.1-9.2-0.1-9.6c1.4,0,4,0.1,5.8,0.2c0-0.7,0.2-2.4,0.2-2.4      c-2.8-0.2-6.1-0.2-8.7-0.2L101.4,670.6z"/>
				<path class="st1" d="M111.9,670.9c2.8,0.4,5.4,0.8,8.5,1.5c0,0,0.4-1.9,0.5-2.3c-1.3-0.3-4.4-1-6.1-1.2l0.4-2.4      c1.7,0.2,3.5,0.6,5.5,1.1l0.5-2.3c-1.5-0.4-3.8-0.8-5.6-1.1l0.4-2.5c2.2,0.3,4.2,0.8,6.6,1.3l0.5-2.3c-3.1-0.7-6.1-1.2-9.3-1.7      L111.9,670.9z"/>
				<path class="st1" d="M131.8,666c1.9,0.8,2.8,2.7,2.1,4.6l0,0c-0.8,2-2.7,2.8-4.7,2.1c0,0-1.2-0.5-1.8-0.7      c0.1-0.4,2.4-6.8,2.4-6.8S130.9,665.6,131.8,666 M124.1,673.4l4.2,1.5c3.5,1.4,6.9-0.1,8.1-3.2l0,0c1.2-3.1-0.3-6.5-3.8-7.9      c-2-0.8-3.3-1.2-4.6-1.6L124.1,673.4z"/>
				<path class="st1" d="M147.3,678.3L147.3,678.3c-1.1,1.7-3.3,2.4-5.1,1.2c-1.8-1.1-2.1-3.4-1-5.1l0,0c1.1-1.7,3.3-2.3,5.1-1.2      C148.1,674.4,148.4,676.6,147.3,678.3 M139,672.9L139,672.9c-1.9,2.9-1.1,6.7,2,8.7c3.1,2,6.8,1.1,8.7-1.7l0,0      c1.8-2.9,1.1-6.7-2-8.7C144.5,669.2,140.8,670.1,139,672.9"/>
				<path class="st1" d="M148,686.6l1.8,1.6l9.1-1.3l-5.3,5.1l1.7,1.9l8.7-8.2l-1.5-1.7l-9.5,1.2l5.2-5.5l-1.9-1.7L148,686.6z"/>
				<path class="st1" d="M28.7,747.5c-0.2-1-0.3-2.3-0.4-3.6l-2.4,0.3c0.3,3.3,0.8,6.7,1.4,9.9l2.4-0.4c-0.2-1.1-0.6-2.8-0.6-3.6      c0.4-0.1,9.4-1.4,9.4-1.4l-0.4-2.6C38.1,746.1,29.4,747.4,28.7,747.5"/>
				<path class="st1" d="M34.3,773.7c1.1,2,3.1,5.5,4.7,7.9l2-1.2c-1.2-1.9-2.6-4-3.4-5.6l2.1-1.2c0.8,1.4,1.8,3,3,4.9l2-1.2      c-1-1.6-2.1-3.4-2.9-4.8l2.2-1.2c0.6,1.2,2.3,3.8,3.3,5.4l2-1.2c-1.4-2-3.4-5.4-4.6-7.7L34.3,773.7z"/>
				<path class="st1" d="M49.3,785.3L49.3,785.3c-2.4,2.4-2.6,6.2,0,8.8c1.6,1.6,3.1,2,4.6,2.1l0.2-2.6c-1.2-0.1-2.3-0.4-3.1-1.2      c-1.4-1.4-1.3-3.6,0.2-5.1l0,0c1.5-1.4,3.7-1.6,5.1-0.2c1,1,1.2,2,1.2,3.2h2.4c0.1-1.8-0.3-3.3-1.9-5      C55.5,782.9,51.7,782.9,49.3,785.3"/>
				<path class="st1" d="M79.2,804.8l-2.9,3l0-4.2L79.2,804.8z M74,810.2l2.3,0.9l9.4-9.4l-2.7-0.9l-2,2.1l-4.7-2l0-2.8l-2.5-1.2      L74,810.2z"/>
				<path class="st1" d="M85.8,814.1l2.8,0.6l4.3-4.5l2.6,5.6l2.8,0.2l1.5-11.9l-2.6-0.2l-1,7.8l-2.7-5.6l-0.1,0l-4.3,4.5l1.5-7.6      l-2.5-0.6L85.8,814.1z"/>
				<path class="st1" d="M108.1,810.2c1.3,0,2.1,0.7,2.2,1.7v0c0,1.2-0.7,1.9-2,2l-2.1,0.1l-0.1-3.7L108.1,810.2z M103.6,816.3      l2.6,0l2.4-0.1c3.1-0.1,4.5-2,4.4-4.3v0c-0.1-2.8-2.3-4-5-4l-2,0.1l-0.1-3.6h-2.6L103.6,816.3z"/>
				<path class="st1" d="M173.3,761.3c0.5-1.2,1.4-1.7,2.4-1.4l0,0c1.1,0.4,1.5,1.4,1.1,2.6l-0.7,2l-3.5-1.2L173.3,761.3z       M177.3,767.8l1-2.4l0.8-2.3c1-2.9-0.2-4.9-2.4-5.7l0,0c-2.6-0.9-4.6,0.7-5.5,3.2l-0.7,1.8l-3.4-1.2l-1,2.5L177.3,767.8z"/>
				<path class="st1" d="M117.6,815.2l2.6-0.5L118,803l-2.6,0.5L117.6,815.2z"/>
				<path class="st1" d="M132,805L132,805c0.7,2-0.1,4.1-2.1,4.8c-2,0.7-3.9-0.4-4.6-2.3l0,0c-0.7-1.9,0.2-4,2.2-4.7      C129.4,802,131.3,803.1,132,805 M122.6,808.4L122.6,808.4c1.1,3.2,4.6,5,8.1,3.7c3.5-1.2,5-4.7,3.9-7.9l0,0      c-1.1-3.2-4.6-4.9-8.1-3.7C123,801.7,121.5,805.2,122.6,808.4"/>
				<path class="st1" d="M140.7,807.5l2.1-1.2l1.1-9.3l4,6.2l2.2-1.5l-6.5-10l-1.8,1.3l-0.9,9.4l-3.8-6.6l-2.3,1.2L140.7,807.5z"/>
				<path class="st1" d="M147.5,790.9l2.4,0.4c0.2-1.4,0.7-2.5,1.8-3.4c0.8-0.7,1.6-0.8,2-0.3l0,0c0.4,0.5,0.4,1-0.8,2.7      c-1.4,2-2.2,3.6-0.6,5.4l0,0c1.4,1.6,3.7,1.6,5.5,0c1.3-1.1,2.1-2.5,2.4-4.1l-2.3-0.6c-0.3,1.2-0.8,2.3-1.6,2.9      c-0.8,0.7-1.5,0.7-1.8,0.2l0,0c-0.5-0.6-0.3-1.1,0.9-2.9c1.4-2.1,1.9-3.6,0.5-5.2l0,0c-1.6-1.8-3.8-1.6-5.8,0.1      C148.7,787.3,147.8,789,147.5,790.9"/>
				<path class="st1" d="M164.9,788.2l1.7-2l-3.7-2.9l2.9-4l3.9,2.7l1.5-2.2l-9.8-6.8l-1.4,2.2l3.9,2.7l-2.8,3.9l-3.8-2.9l-1.7,2      L164.9,788.2z"/>
				<path class="st1" d="M56.7,800.3l2.1,1.6l2.7-3.9l4.3,2.8l-2.5,4l2.3,1.3l6.3-10.2l-2.3-1.3l-2.5,4.1l-4.2-2.8l2.8-3.9l-2.1-1.6      L56.7,800.3z"/>
				<path class="st1" d="M28.4,758.6l0.7,2.5l4.5-1.4l1.6,4.6l-4.4,1.7l1,2.4l11.2-4.2l-1-2.4l-4.5,1.7l-1.6-4.5l4.6-1.5l-0.7-2.5      L28.4,758.6z"/>
				<path class="st1" d="M173.8,775l1.2-2.3l-10.7-5.4l-1.2,2.3L173.8,775z"/>
				<path class="st1" d="M171.5,753.1l2.1-1.3c-0.7-1.2-1.1-2.4-0.9-3.7c0.2-1.1,0.7-1.6,1.4-1.5l0,0c0.7,0.1,0.9,0.6,1.2,2.6      c0.3,2.5,0.7,4.1,3,4.5l0,0c2.1,0.3,3.8-1.2,4.2-3.6c0.3-1.7-0.1-3.3-0.9-4.6l-2.2,1.1c0.6,1.2,0.9,2.2,0.7,3.2      c-0.1,1-0.7,1.5-1.3,1.4h0c-0.8-0.1-1-0.7-1.2-2.8c-0.3-2.5-0.9-4-3-4.3l0,0c-2.3-0.3-3.9,1.3-4.3,3.8      C170.1,749.6,170.5,751.5,171.5,753.1"/>
				<path class="st1" d="M108.9,702.8c-1.1-1.2-2.7-1.9-4.5-1.9c-1.8,0-3.3,0.7-4.5,1.9c-0.6-0.9-1-2-1-3.2s0.4-2.3,1-3.2      c1.1,1.2,2.7,1.9,4.5,1.9c1.8,0,3.3-0.7,4.5-1.9c0.6,0.9,1,2,1,3.2S109.6,701.9,108.9,702.8"/>
				<path class="st1" d="M104.5,702.4c1.3,0,2.6,0.6,3.4,1.5c-0.9,0.8-2.1,1.2-3.4,1.2c-1.3,0-2.5-0.5-3.4-1.2      C101.9,703,103.1,702.4,104.5,702.4"/>
				<path class="st1" d="M104.5,696.8c-1.4,0-2.6-0.6-3.4-1.5c0.9-0.8,2.1-1.2,3.4-1.2c1.3,0,2.5,0.5,3.4,1.2      C107,696.2,105.8,696.8,104.5,696.8"/>
				<path class="st1" d="M79.1,710.7h8.2c1,1,2.1,2.1,3.1,3.2h-8.2C81.1,712.8,80,711.8,79.1,710.7"/>
				<path class="st1" d="M83.8,715.5h8.1c1.1,1.1,2.1,2.2,3,3.1H87C85.9,717.6,84.8,716.6,83.8,715.5"/>
				<path class="st1" d="M77.2,708.8c-0.8-0.9-1.3-1.5,0.5-3.4c1.9-1.8,2.5-1.4,3.4-0.5c0.3,0.3,0.6,0.6,1,0.9      c1.1,1.1,2.3,2.2,3.5,3.3h-8C77.4,709,77.3,708.9,77.2,708.8"/>
				<path class="st1" d="M96.7,720.5l0.1,0.1c0.3,0.3,0.3,0.3,0.6,0.6c0.3,0.3,0.4,0.5,0.4,0.7l-3.4,3.4c-0.2,0-0.4-0.2-0.7-0.4      c-0.3-0.3-0.4-0.3-0.7-0.6l-0.1-0.1c-1.3-1.2-2.7-2.5-4.2-4l7.8,0C96.6,720.4,96.6,720.5,96.7,720.5"/>
				<path class="st1" d="M125.8,706.7v8.2c-1,1-2.1,2.1-3.2,3.1v-8.2C123.7,708.7,124.7,707.7,125.8,706.7"/>
				<path class="st1" d="M121,711.4v8.1c-1.1,1-2.2,2.1-3.1,3v-8C118.8,713.6,119.9,712.5,121,711.4"/>
				<path class="st1" d="M105.6,727.8l4.4-4.5l3.2,3.2l-4.3,4.2c-0.9-0.7-1.9-1.5-2.9-2.5L105.6,727.8z"/>
				<path class="st1" d="M127.7,704.8c0.9-0.8,1.5-1.3,3.4,0.5c1.8,1.9,1.4,2.5,0.5,3.4c-0.3,0.3-0.6,0.6-0.9,1      c-1.1,1.1-2.2,2.3-3.3,3.5v-8.1C127.5,705,127.6,704.9,127.7,704.8"/>
				<path class="st1" d="M115.9,724.3l-0.1,0.1c-0.3,0.3-0.3,0.3-0.6,0.6c-0.3,0.3-0.5,0.4-0.7,0.4L111,722c0-0.2,0.2-0.4,0.5-0.7      c0.3-0.3,0.3-0.4,0.6-0.7l0.1-0.2c1.2-1.3,2.5-2.7,4-4.2v7.8C116.1,724.2,116,724.3,115.9,724.3"/>
				<path class="st1" d="M94.7,745.8h-3.4v3.4h3.4V745.8z M90.6,741.7l-3.4,0v3.4h3.4V741.7z M83,745.1h3.4v-3.4H83V745.1z       M78.8,745.1h3.4v-3.4h-3.4V745.1z M74.7,749.2h3.4v-3.4h-3.4V749.2z M70.4,753.4H74V750h-3.5V753.4z M70.4,757.5H74v-3.4h-3.5      V757.5z M70.4,761.9H74v-3.6h-3.5V761.9z M74.7,766.2h3.4v-3.6h-3.4V766.2z M82.3,762.6h-3.4v3.6h3.4V762.6z M86.4,762.6H83v3.6      h3.4V762.6z M90.6,758.3h-3.4v3.6h3.4V758.3z M94.7,754.1h-3.4v3.4h3.4V754.1z M87.1,753.4h3.4V750h-3.4V753.4z M83,749.2h3.4      v-3.4H83V749.2z M78.8,749.2h3.4v-3.4h-3.4V749.2z M82.3,758.3h-3.4v3.6h3.4V758.3z M86.4,758.3H83v3.6h3.4V758.3z M83,757.5      h3.4v-3.4H83V757.5z M78.8,757.5h3.4v-3.4h-3.4L78.8,757.5z M78.8,753.4h3.4V750h-3.4V753.4z M86.4,750H83v3.4h3.4V750z       M90.6,754.1h-3.4v3.4h3.4V754.1z M74.7,761.9h3.4v-3.6h-3.4V761.9z M74.7,757.5h3.4v-3.4h-3.4V757.5z M74.7,753.4h3.4V750h-3.4      V753.4z M90.6,745.8h-3.4v3.4h3.4V745.8z M94.7,750h-3.4v3.4h3.4V750z M98.1,749.2c0,0.2,0,0.5,0,0.7h-2.7v3.4h2.5      c0,0.2-0.1,0.5-0.1,0.7h-2.4v3.4h1.2c-0.1,0.2-0.2,0.5-0.3,0.7h-0.9v1.5c-0.2,0.4-0.5,0.7-0.7,1.1v-2.6h-3.4v3.6H94      c-0.2,0.2-0.4,0.5-0.6,0.7h-2.1v2.1c-0.2,0.2-0.5,0.4-0.7,0.6v-2.7h-3.4v3.6h2.1c-0.4,0.3-0.8,0.5-1.2,0.7h-0.9v0.5      c-0.2,0.1-0.5,0.2-0.7,0.3V767H83v2c-0.2,0.1-0.5,0.1-0.7,0.2V767h-3.4v2.5c-0.2,0-0.5,0-0.7,0V767h-3.4v1.7      c-0.2-0.1-0.5-0.2-0.7-0.3V767h-2.4c-0.3-0.2-0.6-0.5-0.8-0.7H74v-3.6h-3.5v3.4c-0.3-0.3-0.5-0.5-0.7-0.8v-2.5h-1.6      c-0.1-0.2-0.2-0.5-0.3-0.7h1.9v-3.6H67c0-0.2,0-0.5,0-0.7h2.7v-3.4h-2.4c0-0.2,0.1-0.5,0.2-0.7h2.3V750h-1.1      c0.1-0.2,0.2-0.5,0.3-0.7h0.7v-1.3c0.2-0.4,0.5-0.7,0.7-1.1v2.4H74v-3.4h-2.8c0.2-0.2,0.4-0.5,0.6-0.7H74v-2.2      c0.2-0.2,0.5-0.4,0.7-0.6v2.8h3.4v-3.4h-2.5c0.4-0.3,0.7-0.5,1.1-0.7h1.4v-0.8c0.2-0.1,0.5-0.2,0.7-0.3v1.1h3.4v-2.3      c0.2-0.1,0.5-0.1,0.7-0.2v2.5h3.4v-2.7c0.2,0,0.5,0,0.7,0v2.7h3.4V739c0.2,0.1,0.5,0.2,0.7,0.3v1.6h2.6c0.3,0.2,0.5,0.5,0.8,0.7      v0h-3.4v3.4h3.4v-3.4h0c0,0,0,0,0,0c0.2,0.2,0.5,0.5,0.7,0.8v2.6h1.7c0.1,0.2,0.2,0.5,0.3,0.7h-1.9v3.4L98.1,749.2z"/>
				<path class="st1" d="M98.8,749c-0.2-2.1-0.9-5.3-3.5-7.9c-2.6-2.6-5.8-3.3-7.9-3.5c-5.7-0.5-10.5,1.1-15.1,6      c-8,8.4-8.3,17.1-2.4,23c5.9,5.9,14.6,5.6,23-2.4C97.7,759.5,99.3,754.7,98.8,749 M101.5,744.2c0,1.1,0,2.3,0.1,3.6      c0.5,6.4-0.8,12.5-8,19c-10,9-19.8,6.9-25.3,1.4c-5.5-5.5-7.6-15.3,1.4-25.3c6.5-7.2,12.6-8.6,19-8c1.3,0.1,2.5,0.1,3.6,0.1      c3.1-0.2,5.3-0.8,7.6-2.2l0.9,0.9c1.2,1.2,2,2.2,2.8,3.3C102.2,739.1,101.7,741.3,101.5,744.2"/>
				<path class="st1" d="M121.3,737.5c-2.1,0.2-5.3,0.9-7.9,3.5c-2.6,2.6-3.3,5.8-3.5,7.9c-0.5,5.7,1.1,10.5,6,15.1      c8.4,8,17.1,8.3,23,2.4c5.9-5.9,5.6-14.6-2.4-23C131.8,738.7,127,737,121.3,737.5 M139.1,742.9c9,10,6.9,19.8,1.4,25.3      c-5.5,5.5-15.3,7.6-25.3-1.4c-7.2-6.5-8.5-12.6-8-19c0.1-1.3,0.1-2.5,0.1-3.6c-0.4-4.8-1.6-7.7-5.5-11.6l-6.1-6l3.2-3.2l6,6.1      c3.9,3.9,6.8,5.2,11.6,5.5c1.1,0,2.3,0,3.6-0.1C126.5,734.3,132.6,735.7,139.1,742.9"/>
				<path class="st1" d="M134.8,757.5h3.5V754h-3.5V757.5z M138.3,749.9h-3.5v3.4h3.5V749.9z M134.1,745.8h-3.4v3.4h3.4V745.8z       M129.9,741.6h-3.4v3.4h3.4V741.6z M122.3,745h3.4v-3.4h-3.4V745z M118.2,745h3.4v-3.4h-3.4V745z M114.1,749.2h3.4v-3.4h-3.4      V749.2z M114.1,753.3h3.4v-3.4h-3.4V753.3z M114.1,757.5h3.4V754h-3.4V757.5z M118.2,761.8h3.4v-3.6h-3.4V761.8z M122.3,766.2      h3.4v-3.6h-3.4V766.2z M129.9,762.5h-3.4v3.6h3.4V762.5z M134.1,762.5h-3.4v3.6h3.4V762.5z M130.6,761.8h3.4v-3.6h-3.4V761.8z       M126.5,749.9v3.4h3.4l0-3.4H126.5z M122.3,749.2h3.4v-3.4h-3.4V749.2z M125.8,749.9h-3.4v3.4h3.4V749.9z M125.8,754h-3.4v3.4      h3.4V754z M129.9,754h-3.4v3.4h3.4V754z M129.9,758.2h-3.4v3.6h3.4V758.2z M122.3,761.8h3.4v-3.6h-3.4V761.8z M118.2,757.5h3.4      V754h-3.4V757.5z M118.2,753.3h3.4v-3.4h-3.4V753.3z M118.2,749.2h3.4v-3.4h-3.4V749.2z M129.9,745.8h-3.4v3.4h3.4V745.8z       M134.1,749.9h-3.4v3.4h3.4V749.9z M134.1,754h-3.4v3.4h3.4V754z M138.3,758.2h-3.5v3.6h3.5V758.2z M139,757.5h2.7      c0,0.2,0,0.5,0,0.7H139v3.6h1.9c-0.1,0.2-0.2,0.5-0.3,0.7H139v2.5c-0.2,0.3-0.5,0.6-0.7,0.8v-3.4h-3.5v3.6h3.2      c-0.3,0.3-0.6,0.5-0.8,0.7h-2.4v1.4c-0.2,0.1-0.5,0.2-0.7,0.3v-1.7h-3.4v2.4c-0.2,0-0.5,0-0.7,0v-2.5h-3.4v2.2      c-0.2,0-0.5-0.1-0.7-0.2v-2h-3.4v0.9c-0.2-0.1-0.5-0.2-0.7-0.3v-0.5h-1c-0.4-0.2-0.8-0.5-1.2-0.7h2.1v-3.6h-3.4v2.7      c-0.2-0.2-0.5-0.4-0.7-0.6v-2.1h-2.1c-0.2-0.2-0.4-0.5-0.6-0.7h2.7v-3.6h-3.4v2.7c-0.3-0.4-0.5-0.7-0.7-1.1v-1.5h-0.9      c-0.1-0.2-0.2-0.5-0.3-0.7h1.2l0-3.4H111c-0.1-0.2-0.1-0.5-0.1-0.7h2.5v-3.4h-2.7c0-0.2,0-0.5,0-0.7h2.7v-3.4h-1.9      c0.1-0.2,0.2-0.5,0.3-0.7h1.7v-2.6c0.2-0.3,0.4-0.5,0.7-0.8c0,0,0,0,0,0h0v3.4h3.4v-3.4h-3.4v0c0.3-0.3,0.5-0.5,0.8-0.7h2.6      v-1.6c0.2-0.1,0.5-0.2,0.7-0.3v1.9h3.4v-2.7c0.2,0,0.5,0,0.7,0v2.7h3.4v-2.5c0.2,0,0.5,0.1,0.7,0.2v2.3h3.4v-1.1      c0.2,0.1,0.5,0.2,0.7,0.3v0.8h1.4c0.4,0.2,0.7,0.5,1.1,0.7h-2.5v3.4h3.4v-2.8c0.2,0.2,0.5,0.4,0.7,0.6v2.2h2.2      c0.2,0.2,0.4,0.5,0.6,0.7h-2.8v3.4h3.5v-2.4c0.3,0.4,0.5,0.7,0.7,1.1v1.3h0.7c0.1,0.2,0.2,0.5,0.3,0.7H139v3.4h2.3      c0.1,0.2,0.1,0.5,0.2,0.7H139L139,757.5z"/>
			</g>
		</g>
	</g>
</g>
</svg>